<?xml version="1.0" encoding="utf-8"?>
<!-- Generator: Adobe Illustrator 23.1.0, SVG Export Plug-In . SVG Version: 6.00 Build 0)  -->
<svg version="1.1" id="Layer_1" xmlns="http://www.w3.org/2000/svg" xmlns:xlink="http://www.w3.org/1999/xlink" x="0px" y="0px"
	 viewBox="0 0 330 251" style="enable-background:new 0 0 330 251;" xml:space="preserve">
<style type="text/css">
	.st0{fill:#DCAF57;}
	.st1{fill:#E91E25;}
	.st2{fill:#23100E;}
	.st3{fill:#0B1B22;}
	.st4{fill:#010101;}
	.st5{fill:#713517;}
	.st6{fill:#5E7A85;}
	.st7{fill:#501C10;}
	.st8{fill:#3C3C3D;}
	.st9{fill:#0B1F28;}
	.st10{fill:#9F5F52;}
	.st11{fill:#E37944;}
	.st12{fill:#FDEDE6;}
	.st13{fill:#09446B;}
	.st14{fill:#EF3E40;}
	.st15{fill:#CC5D2A;}
	.st16{fill:#2A292B;}
	.st17{fill:#F9D074;}
	.st18{fill:#779DA3;}
	.st19{fill:#0F6D9C;}
	.st20{fill:#8176B7;}
	.st21{fill:#2889BC;}
	.st22{fill:#206983;}
	.st23{fill:#0C4B81;}
	.st24{fill:#0D2C36;}
	.st25{fill:#97C1C6;}
	.st26{fill:#EA8C62;}
	.st27{fill:#13141D;}
	.st28{fill:#FDCB81;}
	.st29{fill:#EAAC51;}
	.st30{fill:#D0AD65;}
</style>
<g>
	<path class="st0" d="M8.9,183.1l-7.2-0.1c-0.7,0-1.2-0.6-1.1-1.2l0.3-3.4c0-0.6,0.5-1.2,1.9-1.2l6.6,0.1c0.7,0,1.2,0.6,1.1,1.2
		l-0.4,3.5C10,182.7,9.5,183.2,8.9,183.1"/>
	<path class="st0" d="M9.8,174.3l-7.5-0.1c-0.7,0-1.2-0.6-1.1-1.2l0.3-3.4c0-0.6,0.5-1.2,1.9-1.2l6.8,0.1c0.7,0,1.2,0.6,1.1,1.2
		l-0.4,3.5C10.9,173.8,10.4,174.3,9.8,174.3"/>
	<path class="st0" d="M7.9,192.8l-7-0.1c-0.7,0-1.2-0.6-1.1-1.2l0.3-3.4c0-0.6,0.5-1.1,1.9-1.2l6.4,0.1c0.7,0,1.2,0.6,1.1,1.2
		L9,191.7C9,192.3,8.5,192.8,7.9,192.8"/>
	<path class="st0" d="M10.8,165L3.1,165c-0.7,0-1.2-0.6-1.1-1.2l0.3-3.4c0-0.6,0.5-1.2,1.9-1.2l7,0.1c0.7,0,1.2,0.6,1.1,1.2
		l-0.4,3.5C11.9,164.6,11.4,165,10.8,165"/>
	<path class="st0" d="M3.4,145.7l0.3-3.7c0-0.6,1.3-0.8,1.9-0.8l14.5,0.1c0.7,0,1.2,0.6,1.1,1.2L21,146c0,0.6-0.3,0.9-0.9,0.9
		l-15.6,0C3.9,146.9,3.3,146.4,3.4,145.7"/>
	<path class="st0" d="M11.7,156l-7.9-0.1c-0.7,0-1.2-0.6-1.1-1.2l0.3-3.5c0-0.6,0.8-1.2,2-1.2l7.1,0.2c0.7,0,1.2,0.6,1.1,1.2
		l-0.4,3.5C12.8,155.6,12.3,156,11.7,156"/>
	<path class="st0" d="M9.7,131.9c-2.3,1.1-2.1,6.2-2.1,6.2L4,138.4c-0.2,0-0.4-0.2-0.4-0.4c0.4-4.9,4.3-46.1,5.3-46.9
		c0.2-0.1,0.6-0.6,1.1-0.4c2.9,1.1,9.9,6.6,11.2,18.5c1.5,14-4.9,35-4.9,35l-1,3.1c-0.3-3.4-0.7-5.7-1.4-5.5
		c-2.1,0.6-8.9,51.1-8.1,67.5c0.6,11.5,2.1,25.7,13.8,34c-9.6-5-13.6-12.8-15.3-31.8c-1.7-19.1,5.1-66.8,5.1-66.8
		S11.9,130.8,9.7,131.9"/>
	<path class="st1" d="M218.3,139.1c6.6-5,17.4-14.5,22.1-26.7c4.6-12.2,7-21.5,8-26.3l0.6-0.7l-2.3,71.5l-7.8,14.9l-23.1-18.5
		l-19.3-5.7c4.7-1.3,8.6-2.4,11.4-3.2C211.6,143.2,215.2,141.4,218.3,139.1"/>
	<path class="st2" d="M245.9,96c0.7-2.6,1.3-4.9,1.8-6.8c-0.1,2.2-0.2,5.3-0.4,9L245.9,96z"/>
	<path class="st3" d="M240.4,112.3c1.8-4.7,3.2-9,4.4-12.8c0.7,1.2,1.5,2.3,2.2,3.5c-0.6,12-1.4,27.6-2.1,37.6l-8.1-4.8
		c-1.1-0.6-2.3-1.1-3.6-1.2l-8.2-1.1l0.1-0.2C230.8,128.2,237.1,121,240.4,112.3"/>
	<path class="st4" d="M249.1,82.3c0,0-0.5,46.4-1,58.4c-0.5,12,5.6,38.8-24.1,51.4c-27.6,11.7-63.9,17.5-90.5,18
		c-78.7,1.4-96.7-14.7-107.2-28.5c-7.5-9.8-9.3-15-9.3-15s-6.3,29.7-4.5,50.2c1.8,20.5,13.8,34,42.3,34s119.8-19.5,141.8-28.2
		c22.1-8.7,32.8-15.6,46.6-40.7C254.6,161.5,249.1,82.3,249.1,82.3"/>
	<path class="st5" d="M265.6,119.1l-2.1-2.7l-1.5-0.7c0,0,2,5.8,0.4,7.9c-1.6,2.1-4.2-0.3-4.8-2.5c-0.6-2.2-0.3-2.2-0.3-2.2
		l-1.8-0.3l-0.5,2.9l1.9,6.5c0,0,5.4,1,5.7,0.7c0.4-0.4,2.1-2.8,2.1-2.8s1.1-2.9,1.1-3.2C265.8,122.1,265.6,119.1,265.6,119.1"/>
	<path class="st6" d="M248.1,140.7c-0.5,12,5.6,38.8-24.1,51.4c-27.6,11.7-63.9,17.5-90.5,18c-6.8,0.1-13.1,0.1-19,0
		c43.6,0,84.6-14.7,99.7-21.6c17.7-8,28.6-27.3,30.1-41.4c1.5-14,3.5-61.7,3.5-61.7c0.6-0.2,1-3.6,1.3-3.2
		C249,93.2,248.5,130.7,248.1,140.7"/>
	<path class="st2" d="M264.2,126.3l-2.1,0c0,0-1.5,1.3-3.4,0.2c-1.5-0.9-2.6-2.3-3-3.9c-0.1-0.4-0.2-0.8-0.2-1.3
		c-0.2-2.2,0.3-2.8,0.3-2.8l-0.8-0.2c0,0-1.2,3.9,0.7,8.3c1.8,4.4,2.3,4.7,2.5,6.6s0.4,7.3-1.5,10.1c-1.9,2.8-3.7,3.9-7.2,5.5
		c-1.5,0.7-3.1,1.7-4.3,2.6c-2.6,1.8-4.6,4.4-5.5,7.3c-0.4,1.2-0.6,2.4-0.8,4c-0.4,3.5,1.8,13.2,1.8,13.2l3.8-15.8l8.8-7.8l7.8-2.6
		l3.1-6.9L264.2,126.3z"/>
	<path class="st7" d="M263.5,116.4c0,0,3.5-0.1,3.3,6.1c-0.1,2.9-0.4,5.3-0.8,7c-0.4,2.2-0.6,4.5-0.5,6.8c0.2,3.7,0.2,9.2-1,11.2
		c-1.9,3.1-4.1,5-8.6,6.4c-3.4,1-5.9,3.8-7.5,6.4c-1.6,2.5-2.7,5.2-3.3,8.1l-1.4,6.5l-3,1c0,0-1.5-8.6,1.1-15s5.8-8.6,10.9-9.9
		c5.1-1.2,9.5-2,10.1-12.1c0.6-10.1-1.8-11.7-0.6-12.6C263.3,125.4,265.9,122.1,263.5,116.4"/>
	<path class="st4" d="M226.9,146.8l0.4,5.2c1.8,2.7,4.1,5.4,8,7.2c4.3,2.1,4.2,2.5,2.8,4.1c-2.3,2.6-14.2-3.6-14.2-3.6l-2.6-10.1
		L226.9,146.8z"/>
	<path class="st8" d="M196.7,222.6c13.8-5.5,23.1-10.2,31.6-19.1c-2.6,5.1-7.7,12.6-16.8,17.3c-14.8,7.7-81.9,24.7-114.5,28.2
		c-17,1.8-30.9,2-40.3,1.7C87.2,250,175.1,231.2,196.7,222.6"/>
	<path class="st9" d="M196.4,147.5c-24.6,9-67.1,20.2-99.2,28.2C129.6,166.6,173.1,154.2,196.4,147.5"/>
	<path class="st9" d="M39.8,194.6c-0.7-0.4-1.3-0.9-2-1.3l16.8-7.3c0,0,18.3-4.2,42.6-10.2c-22.7,6.4-39.8,11.2-40.7,11.3
		C54.8,187.3,45.7,191.7,39.8,194.6"/>
	<path class="st6" d="M207.8,144.3c-2.8,0.8-6.7,1.9-11.4,3.2c5.6-2.1,10.3-4,13.7-5.8c29.5-15.4,32.9-44.4,36.3-53.9
		c2.2-6.1,2.7-5.5,2.7-5.5s-1.8,11.7-8.7,30c-4.7,12.3-15.4,21.8-22.1,26.7C215.2,141.4,211.6,143.2,207.8,144.3"/>
	<path class="st10" d="M243.4,157.6c-0.4,0.8-0.7,1.3-0.9,1.6c2.5-5.1,5.5-7.1,10.1-8.2c5.1-1.2,9.5-2,10.1-12.1
		c0-0.4,0-0.8,0.1-1.2c0,0,1.1,8.4-4,11.8C253.7,152.9,246.8,151.3,243.4,157.6"/>
	<path class="st11" d="M185.7,2.4c0,0,2.9-2.2,6.8,4.7c0.4,0.8,1.3,2.7,0.4,3.9c-1.7,2.3-5.8-0.4-5.8-0.4s-0.2,5.9,1.1,6.6
		c1.2,0.7,7.5,4.6,7.5,4.6l-5.1,7.4c-2.5-1.7-8.1-8.9-8.8-9.8C176.6,13,185.7,2.4,185.7,2.4"/>
	<path class="st12" d="M207.8,28.9c0,0-5.8-1.2-8.7-5.3c-5.1-7.2-9.2,5.2-9.2,5.2s7.3,10.8,7.5,11.4c0.2,0.5-0.7,10.6-1.3,15.5
		c-1.2,9.9-0.2,10.4,1,10.3c2.8-0.2,7.7-0.4,10.9-0.7c4.6-0.3,10.8,1.4,10.8,1.4s1.9,0.9,2.8,0s0.9-7.8,0.9-7.8l-0.3-1.9
		c0,0,2-7.3,2.7-6l0.6,1.3c0,0,8-0.1,8.6,1.3c1.4,3.1,2.6,1.6,2.6,1.6s-0.5-6.3-1.5-11.3c-0.2-1-0.4-1.9-0.7-2.8
		c-0.7-2.5-3.2-3.7-3.7-4c-1.5-0.9-2.6-1.9-2.6-1.9l-2.4-1.7l-13.2,0.9l-4.2-1.9L207.8,28.9z"/>
	<path class="st13" d="M203.9,27.5c-3.6,2.8-6.4,12.7-6.4,12.7c0-0.1-0.7-1.1-1.1-1.8c1.2-5.3,3.5-10.6,6.4-11.6
		C203.1,27.1,203.5,27.3,203.9,27.5"/>
	<path class="st13" d="M196.5,21.5c-2.4,1.5-4.6,5.4-6,8.2c-0.4-0.5-0.6-0.9-0.6-0.9S192.7,20.5,196.5,21.5"/>
	<path class="st13" d="M199.9,24.6c0.2,0.2,0.4,0.5,0.7,0.7c-2.6,2.5-4.8,8.4-5.6,11.1c-0.2-0.3-0.9-1.3-1.1-1.6
		C195.1,30.4,197.3,25,199.9,24.6"/>
	<path class="st13" d="M198.1,22.5c0.2,0.2,0.4,0.4,0.6,0.7c-2.5,1.9-4.6,5.1-6.3,9.6c-0.2-0.3-0.7-1.1-0.9-1.4
		C192.9,27.6,195.7,22.8,198.1,22.5"/>
	<path class="st14" d="M210.6,26.3c0,0-4.6,0.9-3.9,5.3c0.6,4.4,2.9,5.9,2.9,5.9s3.2-2,6.8-1.5c4,0.5,8.4-2.6,12-0.7
		c0.3,0.2,0.2-0.3,0-0.6c-0.8-0.8-2.1-2.2-3-3.8c-1.2-2-1.4-4.1-2.8-4.1c-3,0.1-7.5,3.4-7.5,3.4L210.6,26.3z"/>
	<path class="st1" d="M210.6,26.3c0,0-4.6,0.9-3.9,5.3c0.6,4.4,2.9,5.9,2.9,5.9s3.2-2,6.8-1.5c4,0.5,8.4-2.6,12-0.7
		c0.3,0.2,0.2-0.3,0-0.6c-0.8-0.8-2.1-2.2-3-3.8c-1.2-2-1.4-4.1-2.8-4.1c-3,0.1-7.5,3.4-7.5,3.4L210.6,26.3z"/>
	<path class="st15" d="M210.2,22c0,0,0.2,9.6,0.4,10.3c0.2,0.6,6.2-0.2,7.3-2.2C219,28.1,210.2,22,210.2,22"/>
	<path class="st16" d="M217.4,67.7c0,0,2,4.7,3.3,12.3c0.6,3.7,5.4,37.5,5.4,37.5s0,7,0.9,13c1.8,11.6,3.9,24.2,3.9,24.2
		s-0.5,2.1-7,2.1c-6.5,0-4.2-1.5-4.2-1.5c-3.8-8.5-5.7-18.5-6-33.3l-4.9-24.7c-0.2-1.4-1.2-3.2-1.6-1.8c-5.7,21.5-9,59.2-5.9,60.4
		l-14.8-5.6l3.4-33.9c0,0-0.9-32.6,3.5-41.6C198.7,63.8,217.4,67.7,217.4,67.7"/>
	<path class="st1" d="M196.3,65.8c2.4-0.1,8.5-0.2,12.3-0.4c4.3-0.3,9.9,1.1,11,1.4c-0.1,1,0.9,6.5,0.9,6.5s-14.8-0.5-20.2,0.5
		c-5.4,0.9-7,1.3-7,1.3s0.1-3,1.1-4.1C195.5,69.7,195.4,66,196.3,65.8"/>
	<path class="st1" d="M211.9,68.4C211.9,68.4,211.9,68.4,211.9,68.4c1.7,1.6,8.6,4.7,8.6,4.7c-13.1-2.5-23.3-0.7-24.7,0.9
		C200.7,72.5,211.2,69.1,211.9,68.4"/>
	<path class="st1" d="M196.2,65.8c0,0,12.5,1.9,14.3,1.6c1.8-0.3,2.2,0.2,1.3,1c-0.9,0.8-18.6,6.5-18.6,6.5s0.1-3,1.1-4.1
		C195.5,69.7,195.4,66,196.2,65.8"/>
	<path class="st1" d="M219.9,66.7c0,0-7.9-0.1-8.4,1c-0.4,1.1,8.9,5.4,8.9,5.4S219.9,69.6,219.9,66.7"/>
	<path class="st14" d="M210.8,68.9c-0.1,0,0,0.1,0,0.1c0.7,0.1,2.8,0.3,3.1-0.2c0.3-0.6-0.4-1.5-0.3-1.7c0.1-0.3,0-0.3-0.2-0.4
		c-0.4-0.2-1.3-0.4-1.8,0C211,67.2,211.9,68.4,210.8,68.9"/>
	<path class="st1" d="M211.4,67.3c0,0.6,0.2,1.3-0.6,1.7c0,0-0.4,0-0.3-0.1c0.1-0.1,0.6-0.3,0.5-0.3c-0.4,0-3.2,0.2-3.3,0
		C207.5,67.2,210.9,69.3,211.4,67.3"/>
	<path class="st14" d="M213.6,67.1c0,0,2.8,0,4,7c1.2,7,4.3,43.7,2.2,44.7c-3.4,1.6-5.1,11.5-5.1,11.5s0-61.6-1.2-62.2
		C212.2,67.4,213.6,67.1,213.6,67.1"/>
	<path class="st14" d="M204.9,73.2c2.2-0.1,4.7-0.2,7-0.2c0.3,11.7,1.2,44.2,1.2,44.2s-1.4-6.6-4.2-7.9c-2.8-1.3,0.8-4.1,0.6-4.8
		c-0.4-1.3-4.8-9.3-8.8-7.4c0,0-0.6-1.6,0.7-10.1C202.4,80.8,204.1,75.5,204.9,73.2"/>
	<path class="st17" d="M9.8,183l-7.2-0.1c-0.7,0-1.2-0.6-1.1-1.2l0.3-3.4c0-0.6,0.5-1,1.1-1h7.3c0.7,0,1.2,0.6,1.1,1.2l-0.4,3.5
		C10.9,182.6,10.4,183,9.8,183"/>
	<path class="st17" d="M10.7,174.2l-7.5-0.1c-0.7,0-1.2-0.6-1.1-1.2l0.3-3.4c0-0.6,0.5-1,1.1-1h7.5c0.7,0,1.2,0.6,1.1,1.2l-0.4,3.5
		C11.8,173.7,11.3,174.2,10.7,174.2"/>
	<path class="st17" d="M8.8,192.6l-7-0.1c-0.7,0-1.2-0.6-1.1-1.2l0.3-3.4c0-0.6,0.5-1,1.1-1h7.1c0.7,0,1.2,0.6,1.1,1.2l-0.4,3.5
		C9.9,192.2,9.4,192.6,8.8,192.6"/>
	<path class="st17" d="M11.6,164.9L4,164.8c-0.7,0-1.2-0.6-1.1-1.2l0.3-3.4c0-0.6,0.5-1,1.1-1H12c0.7,0,1.2,0.6,1.1,1.2l-0.4,3.5
		C12.7,164.5,12.2,164.9,11.6,164.9"/>
	<path class="st17" d="M4.3,145.6l0.3-3.4c0-0.6,0.5-1,1.1-1h15.3c0.7,0,1.2,0.6,1.1,1.2l-0.2,3.5c0,0.6-0.5,1.1-1.1,1.1l-15.3-0.2
		C4.7,146.8,4.2,146.2,4.3,145.6"/>
	<path class="st17" d="M12.6,155.9l-7.9-0.1c-0.7,0-1.2-0.6-1.1-1.2l0.3-3.5c0-0.6,0.5-1,1.1-1l8,0c0.7,0,1.2,0.6,1.1,1.2l-0.4,3.5
		C13.7,155.4,13.2,155.9,12.6,155.9"/>
	<path class="st17" d="M10.5,131.8c-2.3,1.1-3,6.4-3,6.4l-3.2,0.2c0,0,4.1-47.6,5.4-47.7c1.3-0.2,10.7,4.3,12.2,18.3
		c1.5,14-4.9,35-4.9,35l-1,3.1c-0.3-3.4-0.7-5.7-1.4-5.5c-2.1,0.6-8.9,51.1-8.1,67.5c0.6,11.5,1.4,26.3,13.1,34.5
		c-9.6-5-12.9-13.3-14.5-32.4c-1.7-19.1,5.1-66.8,5.1-66.8S12.8,130.7,10.5,131.8"/>
	<path class="st7" d="M14.7,141.5c2.1-0.6,1.5,17.2,2.4,25.2c0,0-6.3,29.7-4.5,50.2C14,234.3,23,246.7,43.3,250
		c-2.1-0.1-4.3-0.3-6.7-0.6C8.5,246.2,7.3,224.5,6.5,209C5.7,192.6,12.6,142.1,14.7,141.5"/>
	<path class="st8" d="M14.7,141.5c2.1-0.6,1.5,17.2,2.4,25.2c0,0-6.3,29.7-4.5,50.2C14,234.3,23,246.7,43.3,250
		c-2.1-0.1-4.3-0.3-6.7-0.6C8.5,246.2,7.3,224.5,6.5,209C5.7,192.6,12.6,142.1,14.7,141.5"/>
	<path class="st18" d="M56.6,187c0.3,0,2.6-0.7,6.5-1.7c14.6-1.1,43.9-3.2,51.4-3.8c1.1-0.1,1.7-0.1,1.8-0.1c0.1,0,0.5,0.1,1.3,0.3
		c8.1,2.3,53.2,16.1,62.3,18.9c-18.5,5.1-41.5,9.5-65.3,9.5c5.9,0.1,12.2,0.1,19,0c-54.3,1-79.7-6.4-93.7-15.6
		C45.7,191.7,54.8,187.3,56.6,187"/>
	<path class="st4" d="M214.3,188.5c-4,1.8-9.7,4.2-16.9,6.6l-52.8-14.3c0,0-30.1-16-25.3-23.5c4.8-7.5,10.3-3.2,19-4.5
		c8.8-1.2,9.7-11.3,25-10.3c15.3,1,12,7.9,19.2,7.9c9.9,0,11.7-5.6,26.5-3.3c14.8,2.2,12.5,11,23.8,13.7c3.3,0.8,5,2.1,5.9,3.6
		C233.5,174.3,225.2,183.6,214.3,188.5"/>
	<path class="st19" d="M142.2,157.6c7.7-1.1,10.9-11.2,21.6-10.3c10.9,0.9,10.1,7.1,17.1,8.2c8.6,1.3,10.3-4.9,23.2-2.9
		c13,2,11,9.6,20.9,12c0,0,0.1,0,0.1,0c3.1,0.8,5.3,3.4,5.7,6.5c0.2,1.8,0.2,3.4-0.1,5c-4.5,5.1-10,9.5-16.4,12.5
		c-2.1,0.9-4.6,2-7.6,3.2c-4.5,0.8-9.2,1.7-12.2,2.6l-47.8-12.9c-4.9-2.7-24.8-14.2-21.1-20C129.7,154.9,134.5,158.6,142.2,157.6"/>
	<path class="st20" d="M180.2,156.1c-7-1.1-6.2-7.2-17.1-8.2c-1.4-0.1-2.7,0-3.9,0.2c1.4-0.4,3-0.5,4.7-0.4
		c10.9,0.9,10.1,7.1,17.1,8.2c1.9,0.3,3.4,0.2,4.8-0.1C184.2,156.2,182.4,156.4,180.2,156.1"/>
	<path class="st21" d="M229.9,172.9c-0.2-0.1-0.3-0.3-0.3-0.6c0-0.3,0-0.6-0.1-0.8c-0.4-3.1-2.6-5.7-5.7-6.5c0,0-0.1,0-0.1,0
		c-9.9-2.4-7.9-10.1-20.9-12c-4-0.6-6.9-0.4-9.3,0c2.5-0.6,5.7-0.9,10.1-0.2c13,2,11,9.6,20.9,12c0,0,0.1,0,0.1,0
		c3.1,0.8,5.3,3.4,5.7,6.5c0,0.3,0.1,0.6,0.1,0.9C230.5,173,230.1,173,229.9,172.9"/>
	<path class="st4" d="M57.7,170.4c3.4-3.4,22-1.9,29.9-2.6c7.9-0.7,19-8.4,29.5-12.2c10.5-3.7,20.1,6.4,20.1,6.4l6.4,6
		c6.4,6,26.1,13.5,37.2,14.8c3.7,0.4,5.9,2.5,7.2,5l-0.1,10.6c-1.2,0.4-6.9,2-8.1,2.4c0,0-62.8-19.2-63.5-19.2
		c-0.8,0-36.5,2.6-53.2,3.9c-3.9,1.1-6.2,1.7-6.5,1.7c-0.3,0-0.7,0.2-1.3,0.4C55.1,182.9,55.1,173,57.7,170.4"/>
	<path class="st6" d="M179.3,183.2c-11.1-0.6-30.8-8.8-37.2-14.8l-6.4-6c0,0-9-9.5-19.1-6.7c0.2-0.1,0.3-0.1,0.5-0.2
		c10.5-3.7,20.1,6.4,20.1,6.4l6.4,6c6.4,6,26.1,13.5,37.2,14.8c3.7,0.4,5.9,2.5,7.2,5v0C186.1,185,183.1,183.4,179.3,183.2"/>
	<path class="st22" d="M86.1,168.3c-6.6,0.6-20.7-0.3-27.1,1.3c5.4-2.3,21.4-1.1,28.6-1.8c1.3-0.1,2.7-0.4,4.1-0.9
		C89.7,167.6,87.8,168.1,86.1,168.3"/>
	<path class="st23" d="M214.6,169.5c0,1.1,0.5,2,1.2,2c0.7,0,1.2-0.9,1.2-2c0-1.1-0.5-2-1.2-2C215.2,167.6,214.6,168.4,214.6,169.5"
		/>
	<path class="st23" d="M193.3,165.7c0,1.1,0.5,2,1.2,2c0.7,0,1.2-0.9,1.2-2c0-1.1-0.5-2-1.2-2C193.9,163.7,193.3,164.6,193.3,165.7"
		/>
	<path class="st23" d="M170.9,162.6c0,1.1,0.5,2,1.2,2c0.7,0,1.2-0.9,1.2-2c0-1.1-0.5-2-1.2-2C171.5,160.6,170.9,161.5,170.9,162.6"
		/>
	<path class="st23" d="M152.2,159.6c0,1.1,0.5,2,1.2,2c0.7,0,1.2-0.9,1.2-2c0-1.1-0.5-2-1.2-2C152.7,157.6,152.2,158.5,152.2,159.6"
		/>
	<path class="st23" d="M203.6,176.6c0,1.1,0.5,2,1.2,2c0.7,0,1.2-0.9,1.2-2c0-1.1-0.5-2-1.2-2C204.1,174.6,203.6,175.5,203.6,176.6"
		/>
	<path class="st23" d="M180.7,173c0,1.1,0.5,2,1.2,2c0.7,0,1.2-0.9,1.2-2c0-1.1-0.5-2-1.2-2C181.2,171,180.7,171.9,180.7,173"/>
	<path class="st23" d="M160.3,169.7c0,1.1,0.5,2,1.2,2c0.7,0,1.2-0.9,1.2-2c0-1.1-0.5-2-1.2-2C160.9,167.8,160.3,168.6,160.3,169.7"
		/>
	<path class="st23" d="M203.6,159.7c0,1.1,0.5,2,1.2,2c0.7,0,1.2-0.9,1.2-2c0-1.1-0.5-2-1.2-2C204.1,157.7,203.6,158.6,203.6,159.7"
		/>
	<path class="st23" d="M160.3,154.7c0,1.1,0.5,2,1.2,2c0.7,0,1.2-0.9,1.2-2c0-1.1-0.5-2-1.2-2C160.9,152.8,160.3,153.7,160.3,154.7"
		/>
	<path class="st24" d="M188.1,187.7c0,0,3.7-0.8,6.2,0.5c2.5,1.3,0.9,2.5,3.1,3c1.2,0.3,2.4,0.1,3.2-0.1c0.8-0.2,1.7-0.2,2.5,0.2
		c0.6,0.3,1,0.9,1.2,1.4c-4.7,1.8-10.2,3.7-16.4,5.6L188.1,187.7z"/>
	<path class="st21" d="M175.8,178.3c0.9,0.3,1.8,0.3,2.7,0.2c12.2-1.1,30.5,0.6,39.3,8.3c-1.1,0.7-2.3,1.3-3.5,1.8
		c-2.1,0.9-4.6,2-7.6,3.2c-0.8,0.1-1.7,0.3-2.5,0.5c-0.2-0.4-0.5-0.7-1-0.9c-0.8-0.4-1.7-0.4-2.5-0.2c-0.8,0.2-2,0.4-3.2,0.1
		c-2.3-0.6-0.6-1.8-3.1-3c-2.5-1.3-6.2-0.5-6.2-0.5c-1.3-2.5-3.6-4.5-7.2-5c-7-0.8-17.5-4.1-25.9-8
		C163.5,174.4,172.4,177.1,175.8,178.3"/>
	<path class="st6" d="M120.1,182.7c-40.7,16.1-65.7,16-74.1,15.4c-0.9-0.5-1.8-0.9-2.6-1.4c24.3,2.7,75-15.3,75-15.3
		c0.1,0,0.8,0.5,2,1.2C120.4,182.6,120.2,182.7,120.1,182.7"/>
	<path class="st25" d="M43.4,196.7c0.3,0.2,0.6,0.3,0.9,0.5c-1.5-0.8-2.8-1.6-4.1-2.4c5.8,1.7,19.4,3,70.1-13.7l8,0.3
		C118.4,181.4,67.7,199.4,43.4,196.7"/>
	<path class="st8" d="M13.9,185.9c1.4-10.9,3.1-19.2,3.1-19.2s1.8,5.2,9.3,15c10.5,13.8,28.6,29.9,107.2,28.5
		c26.6-0.5,62.8-6.2,90.5-18c13.4-5.7,19.5-14.3,22.2-23.1l1.1,0.1c-1,5.3-2.3,9.7-4,12.8c-0.9,1.7-1.9,3.3-2.8,4.8
		c-11.6,10.7-35.5,23.4-84.6,28.4C65.2,224.4,31.4,211.4,13.9,185.9"/>
	<path class="st8" d="M168.7,213.6c0.2,0,0.4-0.1,0.6-0.1c35.1-5,55.2-14.3,66.8-23c0,0,0,0,0,0c0.9-0.3,1.7,0.7,1.2,1.5
		c-1.7,2.6-3.5,5-5.2,7.2c-7.4,4.6-24.1,13.1-49.1,17.7C160.5,221,160.6,214.9,168.7,213.6"/>
	<path class="st6" d="M169.5,214.3c-0.2,0-0.4,0.1-0.6,0.1c-2.9,0.5-4.8,1.5-4.9,2.6c-1-1.2,1-2.7,4.7-3.3c0.2,0,0.4-0.1,0.6-0.1
		c35.1-5,55.2-14.3,66.8-23c0,0,0,0,0,0c0.3-0.1,0.5-0.1,0.8,0C225.3,199.2,204.4,209.3,169.5,214.3"/>
	<path class="st14" d="M209.4,36c1,3.7-4.3,7.6-4.3,7.6s-0.7-2,0.3-5.4C206.3,34.7,209.4,36,209.4,36 M210.4,34.5
		c0,0-0.8,0.6-0.9,2.2c-0.2,1.7,6.9,6.6,6.9,6.6s-1.6,0.4-1.2-3.3C215.5,36.4,210.4,34.5,210.4,34.5"/>
	<path class="st13" d="M226.9,40.1c0.2-0.5,2.9-1.9,6.5-1.1c0.3,0.3,0.6,0.7,0.8,1.2C231.3,39.2,228.8,39.5,226.9,40.1"/>
	<path class="st13" d="M226.1,43.2c0.1-0.4,0.3-1.5,0.4-1.8c0,0,0.1,0,0.1,0c3.4-1.1,6.5-0.2,8.2,0.5c0.1,0.3,0.3,1.2,0.3,1.6
		C231.6,42,228.4,42.5,226.1,43.2"/>
	<path class="st13" d="M229.6,50.2c0,0-0.1,0-0.1,0c-3.9,0.5-3.6,1.5-3.6,1.5s-0.3-0.2-0.7-0.5c0-0.4,0.1-0.9,0.1-1.4
		c0.5-0.2,1.1-0.4,1.7-0.6c4.5-1.3,7.9,1,9.3,2.2c0.1,0.7,0.1,1.4,0.2,1.9c-0.3-0.3-0.6-0.5-0.9-0.8C234.2,50.8,232,49.9,229.6,50.2
		"/>
	<path class="st13" d="M225.4,48.9c0-0.5,0.1-0.9,0.1-1.4c0.6-0.3,1.2-0.5,2-0.8c3.6-1.1,6.8,0.2,8.4,1.1c0.1,0.6,0.2,1.1,0.2,1.7
		C231.6,46.7,227.7,47.7,225.4,48.9"/>
	<path class="st13" d="M225.7,46.1c0-0.4,0.2-1.1,0.2-1.4c0.4-0.1,0.8-0.3,1.2-0.4c3.4-1.1,6.6-0.1,8.3,0.6c0.1,0.3,0.2,1,0.2,1.3
		C231.5,44.5,227.9,45.1,225.7,46.1"/>
	<path class="st13" d="M216.4,36c1.5,0.2,3.1-0.1,4.7-0.5c5.5,1.1,8.7,2.5,10.5,3.5l-3,0.2l-0.6,0.3c-2.7-0.8-7.7-2.2-13.6-3.6
		C215,35.9,215.7,35.9,216.4,36"/>
	<path class="st13" d="M215.1,40.1c0.1-0.4,0-0.8-0.1-1.2c0.8,0.1,1.6,0.3,2.4,0.4c3.9,0.7,6.8,1.4,9.1,2.2
		c-0.1,0.5-0.2,1.1-0.4,1.9c-2.4-0.7-6.2-1.7-11-2.6C215.1,40.6,215.1,40.3,215.1,40.1"/>
	<path class="st13" d="M197.3,48.4c-0.1,0-0.3,0-0.4,0c0.1-0.7,0.1-1.5,0.2-2.2c5.5,0.1,12.1,0.5,17.6,1.4c4.8,0.8,8.2,1.8,10.5,2.7
		l-0.1,1.2c-0.1-0.2-0.2-0.3-0.3-0.6c-0.2-0.4-0.5,0-0.8,0.7C220.1,50.1,211.5,47.7,197.3,48.4"/>
	<path class="st13" d="M197.4,41.5c2.3,0.1,4.8,0.3,7.4,0.5c0,1,0.2,1.6,0.2,1.6s0.8-0.5,1.6-1.4c3.1,0.3,6.2,0.7,9.1,1.2
		c4.4,0.7,7.6,1.7,9.9,2.5c-0.1,0.7-0.2,1.4-0.2,1.9c-4.2-1.3-13.9-3.9-28.2-4C197.4,42.9,197.4,42.1,197.4,41.5"/>
	<path class="st13" d="M228.4,35.3C228.4,35.3,228.4,35.3,228.4,35.3c0.4,0.3,1,0.8,1.9,1.4c-1.5-0.4-3.7-1-6.4-1.8
		C225.5,34.6,227,34.6,228.4,35.3"/>
	<path class="st13" d="M208.6,39.8c0.4-0.6,0.6-1.2,0.8-1.9c0.2,0,0.4,0.1,0.6,0.1c0.5,0.7,1.4,1.5,2.4,2.3
		C211.2,40.1,209.9,39.9,208.6,39.8"/>
	<path class="st13" d="M202.9,27C202.9,27,202.9,27,202.9,27c1.7,0.9,3.3,1.4,4.2,1.7c-0.2,0.3-0.3,0.7-0.4,1.1
		c-1.6-0.5-3.2-1-4.6-1.4C202.4,28,202.7,27.5,202.9,27"/>
	<path class="st13" d="M198,36c2.3,0.4,4.9,0.8,7.7,1.3c-0.1,0.3-0.3,0.6-0.3,0.9c-0.1,0.4-0.2,0.8-0.3,1.2
		c-2.5-0.3-5.2-0.5-8.1-0.6C197.4,37.9,197.7,37,198,36"/>
	<path class="st13" d="M210.5,62.3c5.5,0.4,9.3,1.2,11.7,2c-0.1,0.6-0.2,1.2-0.3,1.6c-2.7-1-11.2-3.4-26.2-1.5
		c-0.1-0.4-0.1-1-0.1-1.6C200.4,62.2,205.8,61.9,210.5,62.3"/>
	<path class="st13" d="M200.2,31c2,0.5,4.2,1.1,6.6,1.6c0.2,0.7,0.4,1.3,0.6,1.9c-2.8-0.5-5.6-1-8.5-1.4
		C199.3,32.4,199.8,31.7,200.2,31"/>
	<path class="st13" d="M195.6,60.7c0-0.5,0.1-1.1,0.1-1.7c5.1-0.5,11-0.7,16-0.3c4.8,0.4,8.3,1.2,10.7,1.9c0,0.5,0,1.1-0.1,1.7
		C218.9,61.1,210.3,58.9,195.6,60.7"/>
	<path class="st13" d="M197,52.7c-0.2,0-0.3,0-0.5,0c0.1-0.6,0.1-1.1,0.2-1.7c5.5-0.2,12.1-0.2,17.8,0.6c3.8,0.6,6.7,1.3,8.9,2
		c-0.2,0.5-0.3,1-0.5,1.5C218.4,53.7,210.1,51.8,197,52.7"/>
	<path class="st13" d="M196,56.9c0-0.4,0.1-0.8,0.1-1.3c0-0.1,0-0.3,0.1-0.5c5.3-0.4,11.6-0.5,17,0.1c3.8,0.5,6.8,1.1,9,1.7l0.3,1.8
		C218.4,57.5,209.8,55.6,196,56.9"/>
	<path class="st10" d="M185.3-0.1l144.5,229.7c0,0-2,0.6-3.6-2C324.6,224.9,182.5,1.1,182.5,1.1L185.3-0.1z"/>
	<path class="st11" d="M229.6,50.2c3.4-0.5,6.6,1.8,7.3,5.1c0.1,0.3,0.1,0.5,0.2,0.8c0.8,4.1,1.4,4.1,0.6,6
		c-0.8,1.9-3.3,4.9-10.9,0.6c-5.4-3-9.9-12.8-10.8-13.6c-0.5-0.4-0.8-0.3-1.4,0.1c-1.4,0.9,0.4,3.2,0.4,3.2s-1.7-0.1-2.4-0.9
		c-0.6-0.6-0.4-1.1-0.4-1.1s-0.7,0.2-1.3-0.2c-0.7-0.5-0.6-1-0.6-1s-0.2,0.2-0.8-0.2c-0.8-0.5-0.7-2-0.7-2s-1,0.2-1.2-0.9
		c-0.3-1.1-0.1-3.6,2.1-4.3c1.9-0.6,5.5,2.2,9.3,5.2c2.8,2.1,6.8,4.7,6.8,4.7s-0.3-1,3.6-1.5C229.5,50.2,229.6,50.2,229.6,50.2"/>
	<path class="st1" d="M201.4,87c0.1-0.3,0.1-0.7,0.2-1c0-0.1,0-0.2,0-0.3c0.1-0.3,0.1-0.6,0.2-0.9c0,0,0,0,0-0.1
		c0.1-0.3,0.1-0.7,0.2-1c0-0.1,0-0.2,0.1-0.3c0.1-0.3,0.1-0.6,0.2-0.8c0,0,0-0.1,0-0.1c0.1-0.3,0.1-0.6,0.2-0.9c0-0.1,0-0.2,0.1-0.2
		c0.1-0.3,0.1-0.5,0.2-0.7c0-0.1,0-0.1,0-0.2c0.1-0.3,0.1-0.6,0.2-0.8c0-0.1,0-0.1,0.1-0.2c0.1-0.2,0.1-0.5,0.2-0.7
		c0-0.1,0-0.1,0-0.2c0.1-0.3,0.1-0.5,0.2-0.8c0-0.1,0-0.1,0.1-0.2c0.1-0.2,0.1-0.4,0.2-0.6c0,0,0-0.1,0-0.1c0.1-0.2,0.1-0.5,0.2-0.7
		c0,0,0-0.1,0-0.1c0.1-0.2,0.1-0.4,0.2-0.5c0,0,0-0.1,0-0.1c0.1-0.2,0.1-0.4,0.2-0.6c0,0,0,0,0-0.1c0.1-0.2,0.1-0.3,0.2-0.5
		c0,0,0,0,0-0.1c0.1-0.4,0.2-0.7,0.3-1c2.2-0.1,4.7-0.1,7-0.1c0,0.4,0,0.8,0,1.2c-7.1,0.2-8.3,10.1-10,22.6c-0.4,0-0.9,0.1-1.3,0.3
		C200.7,97.1,200,95.5,201.4,87"/>
	<path class="st16" d="M218.9,73.1c0.8,0,1.4,0,1.5,0c2,5.9,3.3,20.3,4.5,30.1c1.4,11.2,1.8,13.9,1.6,14.5
		c-1.1,3.9-4.2,11.8-4.2,11.8l0.1-18.9C222.4,110.6,218.8,81.4,218.9,73.1"/>
	<path class="st1" d="M208.9,109.4c-2.8-1.3,0.8-4.1,0.6-4.8c-1.4,2.7-3-11.5,0.1-21.3c1.5-4.8,1.6,21.3,2.1,25.1
		c0.5,3.7,1.4,9,1.4,9S211.8,110.6,208.9,109.4"/>
	<path class="st15" d="M192.6,11.4l-3.7-5.9c1.9,1.2,3.8,2.7,3.9,3.8c0.1,0.7,0.1,1.4,0.1,1.9C192.7,11.2,192.6,11.3,192.6,11.4"/>
	<path class="st15" d="M184.4,4.1c1.1,1.8,2.7,4.3,4.7,7.4c-1.1-0.4-2-1-2-1s-0.2,5.2,0.8,6.4c-0.8-0.3-1.5-0.5-1.9-0.4
		c-1.3,0-2.4,2.4-0.4,6.6c0.3,0.7,0.4,1.1,0.4,1.4c-2-2.3-3.8-4.6-4.2-5.1C177.8,14.6,182.1,7.4,184.4,4.1"/>
	<path class="st26" d="M192.9,11c0,0-0.4-2.4-1.5-2.4c-1.1,0-2.8,0.4-2.7,2.3c0,0.8-3.9-3.1-3.3-5.1c0.6-2.1,1-3.2,1.9-3.9
		C188.3,1.2,195.4,6.5,192.9,11"/>
	<path class="st15" d="M233.7,57.5C233.9,57.7,233.8,57.6,233.7,57.5L233.7,57.5z"/>
	<path class="st15" d="M229.5,50.2c0,0,0.1,0,0.1,0c2.4-0.3,4.6,0.7,6,2.4c-7.9-1.7-2.9,3.9-2,4.9l-7.8-5.8
		C225.9,51.7,225.6,50.7,229.5,50.2"/>
	<path class="st15" d="M212.7,47.2c0-0.1,0.1-0.1,0.1-0.2c0,0.2,0.1,0.4,0.2,0.6c-0.1,0.1-0.1,0.2-0.1,0.4l-0.6,2.4
		C212.3,50.4,212.4,48,212.7,47.2"/>
	<path class="st15" d="M210.7,45.9c0.3-0.9,0.4-0.9,1.4-1.1c0.1,0,0.2,0,0.2,0c0,0.1,0.1,0.1,0.1,0.2c0,0-0.1,0-0.1,0.1
		c-0.2,0.2-0.6,0.5-0.8,0.6c-0.4,0.2-0.6,0.6-0.7,1l-0.5,2.5C210.4,49.2,210.4,46.8,210.7,45.9"/>
	<path class="st15" d="M209.4,43.9c0.3-0.6,0.7-0.9,1.3-1.1c0,0.2,0.1,0.4,0.1,0.6c-0.2,0.1-0.4,0.2-0.6,0.3c-0.4,0.2-0.6,0.6-0.7,1
		l-0.6,2.4C208.9,47.1,209,44.8,209.4,43.9"/>
	<path class="st27" d="M224.8,18.8l-2.2,7.6l-12.1,2.5c0,0-3.3-11.3-1.8-11.2C212.6,18,224.8,18.8,224.8,18.8"/>
	<path class="st11" d="M222.9,18.6c0,0,0.6,3.3-0.2,7.9c-0.3,1.7-2.3,5.7-4.4,6.2c-2,0.5-8.2-2.5-7.9-4.7c0.1-0.7,0.1-4-0.3-4
		c-1,0-1.1-1.4-0.5-1.9c1.5-1.5,1.5-0.2,1.5-0.2s6.7-4.1,7.2-4.1L222.9,18.6z"/>
	<path class="st1" d="M224.8,17.6L208.3,16l0.5-2.8l16.3,1.8c0.2,0,0.1,0.2,0.1,0.3c-0.3,1.3,0,2-0.2,2.2
		C224.9,17.6,224.9,17.7,224.8,17.6"/>
	<path class="st27" d="M222.9,23.3c2.5-4.1-9.9-3-12,1c-0.3-1.7-0.2-3-1.5-2.2l14-0.6L222.9,23.3z"/>
	<path class="st27" d="M222.9,24.9c0,0-0.1-2.1-1.4-3.2c-1.3-1.1,2.3,0.6,2.3,0.6L222.9,24.9z"/>
	<path class="st28" d="M204.7,16.4c-0.2,3.2,5,6.2,11.6,6.7c6.6,0.5,12.2-1.7,12.5-5c0.2-3.2-5-6.2-11.6-6.7
		C210.5,10.9,205,13.1,204.7,16.4"/>
	<path class="st29" d="M209,10.6l13.5-1.2l3,2.4l-0.3,3.7c-0.2,2.1-4,3.5-8.5,3.1c-4.5-0.3-8.1-2.3-8-4.3
		C208.7,13.9,209,10.6,209,10.6"/>
	<path class="st28" d="M209,10.6c-0.2,2.1,3.4,4,8,4.3c4.5,0.3,8.4-1.1,8.5-3.1c0.2-2.1-3.4-4-8-4.3C212.9,7.1,209.1,8.5,209,10.6"
		/>
	<path class="st1" d="M216.8,16.6c4.5,0.3,8.4-1.1,8.5-3.1l-0.2,2.1c-0.2,2.1-4,3.5-8.5,3.1c-4.5-0.3-8.1-2.3-8-4.3
		c0-0.2,0.1-1.2,0.2-2.1C208.7,14.3,212.3,16.3,216.8,16.6"/>
	<path class="st30" d="M95,191.9c0,0,8.5,0.2,8.5,4.7c0,4.5-2.5-1.7-7.3,2.2c-4.8,4,15.3,7.7,21,7c5.8-0.7,6.8-1.5,6.8-1.5
		s-3.3,7.5-20,3.7c-16.8-3.7-20-6.7-16.3-10c3.8-3.2-6.5-2.5-8.3,1c-1.8,3.5-15.8,4.5-15.3,1C64.7,196.7,90.7,195.7,95,191.9"/>
	<path class="st30" d="M113.5,199.9c0,0,13-4.5,7-7.2c-6-2.7-11.8,1.5-11.3-2c0.5-3.5,3,0,8.5-1.7c5.5-1.7,5.3-1.5,1.5-3
		c-3.8-1.5,9.8-1.7,8.3,1.5c-1.5,3.2-8,0.5-4,4C127.6,194.9,125.1,202.4,113.5,199.9"/>
	<path class="st30" d="M138.1,204.4c0,0,13.8-3.7,20.5-4c6.8-0.2-8-4.5-8-4.5c-11.3-3-12.8-8.2-15-5.5c-2.3,2.7,7,4.2,10,6
		c3,1.7,0,5.2-6.3,2.2c-6.3-3-14.5,3.5-10.8,5.5c3.8,2,2.3-1.2,5.8-3.2c3.5-2,9.5-1,6.5-0.2C137.8,201.4,135.6,203.9,138.1,204.4"/>
	<path class="st11" d="M190,6.9c-0.2,0.1-2.5,0.6-1.9,3.9c0,0-0.1-1.3,0.4-2.2C189,7.5,190,6.9,190,6.9"/>
	<path class="st11" d="M188.3,5.2c-0.2,0.1-1.3,1.5-1.1,4.6c0,0,0.1-1.1,0.4-2.4C187.8,6.4,188.3,5.2,188.3,5.2"/>
	<path class="st11" d="M187.2,4.1c-0.2,0.1-1.3,2.5-1,4.4C186.3,8.4,187.2,4,187.2,4.1"/>
	<path class="st7" d="M254.6,114.6c0.2,0.4,0.5,0.7,0.7,1.1c0,0.2,0,0.4,0.1,0.6c0.4,0.6,1.2,0.8,2,0.4c0.7-0.4,1-1.3,0.7-1.9
		c-0.1-0.2-0.4-0.4-0.7-0.4l-0.7-1.1c1.5-0.4,3.1,0,3.8,1.2c0.9,1.5,0.1,3.5-1.6,4.5c-1.8,1-3.9,0.6-4.7-0.8
		C253.5,117,253.7,115.7,254.6,114.6"/>
</g>
</svg>
